<svg xmlns="http://www.w3.org/2000/svg" viewBox="0 0 1920 1920"><defs><style>.cls-1{fill:#141414;}.cls-2{fill:#bb86fc;}.cls-3{fill:#5710b2;}.cls-3,.cls-4,.cls-5,.cls-6,.cls-7{fill-rule:evenodd;}.cls-4{fill:#fee;}.cls-5{fill:#72bf44;}.cls-6{fill:#407928;}.cls-7{fill:#a9d377;}.cls-8,.cls-9{fill:#fff;}.cls-9{font-size:19px;font-family:Roboto-Black, Roboto;font-weight:800;}</style></defs><title>icone</title><g id="Camada_1" data-name="Camada 1"><rect class="cls-1" width="1920" height="1920" rx="206.54"/></g><g id="Camada_2" data-name="Camada 2"><ellipse class="cls-2" cx="956" cy="1090.57" rx="691.5" ry="605.82"/><path class="cls-3" d="M1085.27,495.51l37.47,41.11,58-18.91a741.22,741.22,0,0,1,110.87,43.41c-32.43,12.32-44.38,31.46-53.42,51.58q94.86-10.17,178.07,26.24a661.48,661.48,0,0,1,50.2,43.51c-89.72-22.1-167.33,4.38-241.5,44.46,94.26,30.49,157,84.76,197,154.07-59.51-69.84-170.9-99.9-308-107.64-78.84,44.35-75.87,116-61.21,191.52q-77.28-94.87-108-201.39C810.56,759.94,719.05,809.78,647,883.89,690.76,816.54,743.8,754,826.4,702.22,724.17,650.14,604.46,668.87,479,694.41c100.78-58.59,226.29-95.83,350.36-76.77q-33.57-66.93-102.07-98.93a765.1,765.1,0,0,1,88.17-21.41l147,49.2Q967.22,515.75,972,485A788.63,788.63,0,0,1,1085.27,495.51Z" transform="translate(0.4 -0.15)"/><path class="cls-4" d="M570.24,808.58c64.55,6.41,99.64,81.34,78.31,167.33s-90.93,150.52-155.5,144.1-99.63-81.34-78.33-167.33S505.67,802.16,570.24,808.58Z" transform="translate(0.4 -0.15)"/><path class="cls-3" d="M1240.1,538.39c240,95.05,407,306.64,407,552.33,0,334.53-309.66,605.82-691.51,605.82-219.14,0-414.48-89.38-541.17-228.78,111.79,72.61,250.14,115.59,400,115.59,371.26,0,672.36-263.78,672.36-589.06C1486.75,810.54,1390.63,646.42,1240.1,538.39Z" transform="translate(0.4 -0.15)"/><polygon class="cls-5" points="939.64 387.78 1062.15 507.92 1327.33 430.58 1166.48 569.39 1471.33 609.53 1154.53 661.66 1327.33 788.5 1054.16 699.18 998.84 853.92 901.24 691.21 632.05 788.5 796.9 641.71 488.08 609.53 796.9 573.37 632.05 430.58 917.19 515.9 939.64 387.78"/><path class="cls-6" d="M981.1,655.7c64.11,0,116.42-21,116.42-46.8s-52.31-46.81-116.42-46.81-116.43,21-116.43,46.81S917,655.7,981.1,655.7Z" transform="translate(0.4 -0.15)"/><path class="cls-5" d="M1207,216.57C1058.15,265.32,996.49,530.65,999.6,612.68l-47.84-.5c-3.5-100.06,23-366.75,219.37-482.63Z" transform="translate(0.4 -0.15)"/><path class="cls-6" d="M1206.84,216.57C1058,265.32,996.31,530.65,999.42,612.68l-47.84-.5-.09-3.17c10.2-1.26,17.52-4.79,20.9-17.75,5.48-73.15,67.45-317.95,204.15-382.95l-27.84-64.45c7.16-5,14.57-9.78,22.25-14.31Z" transform="translate(0.4 -0.15)"/><path class="cls-7" d="M1153.27,194.36c-105.1,39.72-160.56,197.2-163,256.21l-11.78,1.06c14.28-69.55,38.32-187.5,159.53-283Z" transform="translate(0.4 -0.15)"/><path class="cls-8" d="M267,1131.82a27.72,27.72,0,0,1,5.33,3.06,46.72,46.72,0,0,1,4.58,3.81q4.31,4.1,8.66,8.14,8.72,8.09,17.65,15.93,17.85,15.69,36.48,30.49,37.18,29.65,77,55.82a1061.06,1061.06,0,0,0,167.31,90,987.31,987.31,0,0,0,181,57.55c3.88.85,7.77,1.59,11.65,2.39s7.77,1.58,11.67,2.27l11.7,2.15,11.73,1.94,5.87,1,5.88.86,11.77,1.72,11.79,1.5,5.9.75,5.91.64,11.82,1.29,11.85,1.06,5.92.53,5.93.43,11.86.83c15.83.89,31.68,1.6,47.54,1.71,15.85.27,31.71-.08,47.56-.58l23.76-1.29,5.94-.33c2-.12,4-.18,5.93-.39l11.85-1.06,11.84-1.06,5.93-.53c2-.19,3.94-.47,5.9-.7l23.62-2.91,3-.37,2.94-.46,5.87-.92,11.76-1.84c3.91-.64,7.84-1.17,11.74-1.9l11.69-2.22c15.62-2.76,31.07-6.37,46.55-9.84l23.06-5.88c3.85-.93,7.66-2.06,11.47-3.15l11.44-3.28q45.66-13.39,89.94-31.06c29.49-11.72,58.38-25,86.62-39.45s55.85-30.25,82.62-47.31c53.55-34.12,104.22-72.88,150.4-116.53-46,43.88-96.46,82.92-149.88,117.34-26.71,17.22-54.28,33.11-82.47,47.79s-57.08,28.06-86.57,40-59.55,22.35-90,31.39l-11.45,3.33c-3.82,1.1-7.63,2.24-11.49,3.19l-23.1,5.95c-15.5,3.53-31,7.2-46.64,10l-11.71,2.25c-3.91.75-7.85,1.29-11.77,1.94l-11.78,1.88-5.89.94-2.95.47-3,.38-23.67,3c-2,.24-3.94.53-5.92.72l-5.94.55-11.88,1.1-11.88,1.1c-2,.21-4,.28-6,.41l-6,.34-23.82,1.37c-15.9.54-31.81.94-47.71.71A946.5,946.5,0,0,1,764.29,1400a990.31,990.31,0,0,1-181.74-57.57,1064.23,1064.23,0,0,1-168-90.21q-39.87-26.25-77.32-55.94-18.69-14.83-36.65-30.59-9-7.86-17.74-16-4.39-4.07-8.71-8.18a41.33,41.33,0,0,1-4-4.45A24.94,24.94,0,0,1,267,1131.82Z" transform="translate(0.4 -0.15)"/><rect class="cls-8" x="960.97" y="1319.49" width="35.76" height="99.81"/><rect class="cls-8" x="662.77" y="1281.59" width="35.76" height="92.26" transform="translate(291.54 -112.71) rotate(12.01)"/><rect class="cls-8" x="405.86" y="1181.15" width="35.76" height="68.65" transform="translate(426.19 -71.89) rotate(19.31)"/><rect class="cls-8" x="522.59" y="1242.97" width="18.11" height="63.67" transform="translate(451.88 -104.24) rotate(19.31)"/><rect class="cls-8" x="318.63" y="1139.64" width="18.11" height="46.65" transform="translate(539.59 -26.78) rotate(25.82)"/><rect class="cls-8" x="816.14" y="1328" width="18.11" height="82.44" transform="translate(148.38 -79.06) rotate(6.01)"/><text class="cls-9" transform="translate(979.09 1116.98)">25</text></g></svg>